<svg xmlns="http://www.w3.org/2000/svg" viewBox="0 0 533.52 131.52"><defs><style>.cls-1{fill:#fff}.cls-2{fill:#ddd}</style></defs><title>button__wrap_theme_banket</title><g id="Слой_2" data-name="Слой 2"><g id="Слой_1-2" data-name="Слой 1"><path class="cls-1" d="M255 127.52c-25.7 0-52.85-.67-80.7-2l-5.48-.26c-12.92-.6-26.29-1.22-39.36-2.32-17.47-1.47-36-3.36-56.6-5.79a218 218 0 0 1-38.19-7.61 13.24 13.24 0 0 0-3.86-.52L14.2 109H4V23.75h8.87c3.34 0 6.08 0 8.62.07h1.69a30.33 30.33 0 0 0 12.91-2.34 9.47 9.47 0 0 1 1.47-.43l.91-.23c15.07-4 31.31-6.72 52.63-8.8 18.66-1.82 40.78-3.85 63.36-5.02 17.22-1 34.77-1.46 51.74-1.95q11.56-.33 23.12-.7c1.59-.05 3.17-.14 4.76-.23l2.06-.12H289a11.08 11.08 0 0 0 1.8.24q12.79.45 25.59.86c19.13.63 38.92 1.28 58.36 2.11 12.71.54 26 1.51 39.6 2.88 14.34 1.45 29.87 3.33 47.48 5.76a155.63 155.63 0 0 1 31.7 7.34 11.33 11.33 0 0 0 3.84.55h32.19V109H513.2c-4.88 0-8.87 0-12.56-.06h-.76a59.54 59.54 0 0 0-15.4 2c-19.46 5.14-39.81 7.51-58.91 9.32-17.78 1.68-36.7 3.39-55.31 4.21-30.48 1.35-60.89 2.29-90.37 2.78-8.19.2-16.57.27-24.89.27z"/><path class="cls-2" d="M288.45 8a14.1 14.1 0 0 0 2.17.26q12.82.45 25.65.86c19.11.63 38.87 1.28 58.27 2.11 12.63.54 25.88 1.5 39.37 2.86 14.29 1.44 29.78 3.32 47.34 5.74A151.78 151.78 0 0 1 492.14 27a15 15 0 0 0 5.18.78h28.2V105h-12.27c-4.88 0-8.87 0-12.56-.06h-.8a63.54 63.54 0 0 0-16.43 2.14c-19.19 5.06-39.34 7.42-58.26 9.2-17.73 1.68-36.59 3.38-55.11 4.2-30.45 1.35-60.82 2.28-90.26 2.78-8.16.14-16.52.21-24.85.21-25.63 0-52.71-.67-80.5-2l-5.48-.26c-12.89-.6-26.22-1.22-39.21-2.31-17.44-1.47-35.91-3.35-56.47-5.77a213.84 213.84 0 0 1-37.5-7.47 17.17 17.17 0 0 0-5-.69L14.5 105H8V27.74h4.86c3.33 0 6 0 8.56.07h1.76a34.09 34.09 0 0 0 14.5-2.66c.16-.05.54-.14.82-.21l1-.25c14.86-3.95 30.9-6.62 52-8.69 18.61-1.82 40.67-3.84 63.18-5 17.16-1 34.68-1.46 51.63-2 7.58-.22 15.42-.44 23.14-.7 1.65-.06 3.29-.15 4.87-.24l1.93-.06h52.21m.74-8H236c-2.29.12-4.57.27-6.86.35-25 .84-50 1.29-74.93 2.62C133 4.1 111.86 6 90.72 8c-17.94 1.8-35.79 4.32-53.27 9a18.91 18.91 0 0 0-3 .88 26.42 26.42 0 0 1-11.25 2h-1.62c-2.9-.05-5.8-.07-8.71-.07H.01V113h30.76a9.47 9.47 0 0 1 2.71.34 222 222 0 0 0 38.89 7.76c18.88 2.22 37.79 4.21 56.74 5.8 15 1.26 30 1.88 45 2.59 26.95 1.27 53.91 2 80.87 2q12.49 0 25-.21 45.25-.76 90.48-2.79c18.53-.82 37-2.48 55.51-4.23 20-1.89 40-4.28 59.55-9.43a55.69 55.69 0 0 1 14.36-1.83h.71q6.33.08 12.66.07h20.27V19.76h-36.18a7.6 7.6 0 0 1-2.5-.31 161.63 161.63 0 0 0-32.5-7.54c-15.84-2.18-31.72-4.17-47.63-5.77-13.24-1.34-26.54-2.33-39.83-2.89-28-1.19-56-2-84-3a14.21 14.21 0 0 1-1.69-.25z"/></g></g></svg>